<svg xmlns="http://www.w3.org/2000/svg" viewBox="0 0 1600 900" role="img" aria-label="Abstract live clarity session illustration">
  <defs>
    <linearGradient id="bg" x1="0" y1="0" x2="1" y2="1">
      <stop offset="0" stop-color="#071614"/>
      <stop offset="0.58" stop-color="#102a28"/>
      <stop offset="1" stop-color="#1c1710"/>
    </linearGradient>
    <radialGradient id="glow" cx="70%" cy="34%" r="52%">
      <stop offset="0" stop-color="#f3bd50" stop-opacity=".36"/>
      <stop offset=".45" stop-color="#0d6a66" stop-opacity=".28"/>
      <stop offset="1" stop-color="#071614" stop-opacity="0"/>
    </radialGradient>
  </defs>
  <rect width="1600" height="900" fill="url(#bg)"/>
  <rect width="1600" height="900" fill="url(#glow)"/>
  <g fill="none" stroke-linecap="round" stroke-linejoin="round">
    <circle cx="1120" cy="360" r="168" stroke="#f6d890" stroke-opacity=".46" stroke-width="2"/>
    <circle cx="1120" cy="360" r="96" stroke="#b9d6d1" stroke-opacity=".3" stroke-width="2"/>
    <path d="M760 530c126-90 245-105 360-45 128 67 238 45 330-64" stroke="#e9f3ef" stroke-opacity=".22" stroke-width="3"/>
    <path d="M720 620h690" stroke="#fff" stroke-opacity=".12" stroke-width="2"/>
  </g>
  <g>
    <rect x="900" y="238" width="440" height="270" rx="28" fill="#fff" fill-opacity=".08" stroke="#fff" stroke-opacity=".14"/>
    <rect x="952" y="292" width="118" height="18" rx="9" fill="#f3bd50" fill-opacity=".82"/>
    <rect x="952" y="338" width="284" height="12" rx="6" fill="#fff" fill-opacity=".34"/>
    <rect x="952" y="372" width="214" height="12" rx="6" fill="#fff" fill-opacity=".22"/>
    <circle cx="1236" cy="372" r="46" fill="#0d6a66" fill-opacity=".72"/>
    <path d="M1236 345v54M1209 372h54" stroke="#fff" stroke-opacity=".8" stroke-width="8" stroke-linecap="round"/>
  </g>
</svg>
