<svg xmlns="http://www.w3.org/2000/svg" viewBox="0 0 1600 900" role="img" aria-label="Abstract mentorship guidance illustration">
  <defs>
    <linearGradient id="bg" x1="0" y1="0" x2="1" y2="1">
      <stop offset="0" stop-color="#071614"/>
      <stop offset=".55" stop-color="#16222f"/>
      <stop offset="1" stop-color="#24182e"/>
    </linearGradient>
    <radialGradient id="halo" cx="72%" cy="38%" r="45%">
      <stop offset="0" stop-color="#8b5cf6" stop-opacity=".34"/>
      <stop offset=".42" stop-color="#f3bd50" stop-opacity=".2"/>
      <stop offset="1" stop-color="#071614" stop-opacity="0"/>
    </radialGradient>
  </defs>
  <rect width="1600" height="900" fill="url(#bg)"/>
  <rect width="1600" height="900" fill="url(#halo)"/>
  <g fill="none" stroke="#fff" stroke-opacity=".2" stroke-width="2">
    <path d="M850 618c180-190 342-284 486-282"/>
    <path d="M910 622c122-96 260-118 412-66"/>
    <path d="M926 264c118 70 233 74 344 10"/>
  </g>
  <g>
    <circle cx="1048" cy="412" r="74" fill="#ffffff" fill-opacity=".1" stroke="#fff" stroke-opacity=".16"/>
    <circle cx="1284" cy="330" r="92" fill="#ffffff" fill-opacity=".12" stroke="#f3bd50" stroke-opacity=".24"/>
    <path d="M1106 393l104-38" stroke="#f3bd50" stroke-width="6" stroke-linecap="round"/>
    <circle cx="1048" cy="396" r="20" fill="#89c7c3"/>
    <path d="M998 467c18-36 49-54 92-54 42 0 72 18 90 54" fill="#89c7c3" fill-opacity=".28"/>
    <circle cx="1284" cy="304" r="24" fill="#f3bd50"/>
    <path d="M1228 386c22-44 60-66 112-66 52 0 90 22 112 66" fill="#f3bd50" fill-opacity=".22"/>
  </g>
</svg>
