<svg xmlns="http://www.w3.org/2000/svg" viewBox="0 0 1600 900" role="img" aria-label="Abstract business readiness assessment illustration">
  <defs>
    <linearGradient id="bg" x1="0" y1="0" x2="1" y2="1">
      <stop offset="0" stop-color="#061615"/>
      <stop offset=".52" stop-color="#0a2824"/>
      <stop offset="1" stop-color="#151f1c"/>
    </linearGradient>
    <radialGradient id="goldGlow" cx="75%" cy="30%" r="52%">
      <stop offset="0" stop-color="#f3bd50" stop-opacity=".32"/>
      <stop offset=".42" stop-color="#0d6a66" stop-opacity=".24"/>
      <stop offset="1" stop-color="#071614" stop-opacity="0"/>
    </radialGradient>
    <linearGradient id="panel" x1="0" y1="0" x2="1" y2="1">
      <stop offset="0" stop-color="#ffffff" stop-opacity=".16"/>
      <stop offset="1" stop-color="#ffffff" stop-opacity=".045"/>
    </linearGradient>
  </defs>
  <rect width="1600" height="900" fill="url(#bg)"/>
  <rect width="1600" height="900" fill="url(#goldGlow)"/>
  <g opacity=".42" fill="none" stroke="#d8ece7" stroke-width="2">
    <path d="M920 210h395l120 120v355H920z" opacity=".24"/>
    <path d="M1315 210v120h120" opacity=".34"/>
    <path d="M986 328h250M986 386h330M986 444h292M986 502h246M986 560h314" opacity=".34"/>
  </g>
  <g transform="translate(835 245)">
    <rect width="560" height="380" rx="34" fill="url(#panel)" stroke="#fff" stroke-opacity=".16"/>
    <g transform="translate(58 60)">
      <circle cx="76" cy="76" r="68" fill="none" stroke="#f3bd50" stroke-opacity=".72" stroke-width="14"/>
      <path d="M76 8a68 68 0 0 1 63 43" fill="none" stroke="#89c7c3" stroke-opacity=".9" stroke-width="14" stroke-linecap="round"/>
      <text x="76" y="86" text-anchor="middle" fill="#fff" font-family="Arial, sans-serif" font-size="44" font-weight="700">18</text>
    </g>
    <g transform="translate(242 72)" fill="#fff" fill-opacity=".14">
      <rect width="220" height="42" rx="12"/>
      <rect y="66" width="172" height="16" rx="8" fill-opacity=".28"/>
      <rect y="102" width="242" height="16" rx="8" fill-opacity=".2"/>
      <rect y="138" width="198" height="16" rx="8" fill-opacity=".18"/>
    </g>
    <g transform="translate(58 238)">
      <rect width="110" height="78" rx="18" fill="#fff" fill-opacity=".11" stroke="#fff" stroke-opacity=".12"/>
      <rect x="132" width="110" height="78" rx="18" fill="#fff" fill-opacity=".11" stroke="#fff" stroke-opacity=".12"/>
      <rect x="264" width="110" height="78" rx="18" fill="#fff" fill-opacity=".11" stroke="#fff" stroke-opacity=".12"/>
      <rect x="396" width="110" height="78" rx="18" fill="#fff" fill-opacity=".11" stroke="#fff" stroke-opacity=".12"/>
      <circle cx="55" cy="39" r="14" fill="#f3bd50"/>
      <circle cx="187" cy="39" r="14" fill="#89c7c3"/>
      <circle cx="319" cy="39" r="14" fill="#f3bd50" opacity=".76"/>
      <circle cx="451" cy="39" r="14" fill="#89c7c3" opacity=".86"/>
    </g>
  </g>
  <path d="M680 650c122-80 228-92 318-36 104 64 232 44 384-62" fill="none" stroke="#f3bd50" stroke-opacity=".22" stroke-width="5" stroke-linecap="round"/>
</svg>
